# Blender v2.78 (sub 0) OBJ File: 'otoire.blend'
# www.blender.org
mtllib toire.mtl
o part0_texture0.001
v 0.000000 0.109375 0.117188
v -0.109375 0.062500 0.117188
v -0.046875 -0.000000 0.117188
v -0.109375 0.152344 0.117188
v -0.046875 0.214844 0.117188
v -0.003906 0.109375 -0.117187
v -0.046875 0.000000 -0.117188
v -0.109375 0.062500 -0.117187
v 0.042969 0.000000 -0.117188
v 0.105469 0.062500 -0.117187
v 0.105469 0.152344 -0.117187
v 0.042969 0.214844 -0.117187
v -0.046875 0.214844 -0.117187
v 0.042969 -0.000000 0.117188
v 0.105469 0.152344 0.117188
v 0.042969 0.214844 0.117188
v -0.109375 0.152344 -0.117187
v 0.105469 0.062500 0.117188
vt 0.7409 -0.4993
vt 0.5253 -0.6856
vt 0.6529 -0.9427
vt 0.5240 -0.3194
vt 0.6498 -0.0585
vt 0.7399 -0.4945
vt 0.6529 -0.9427
vt 0.5253 -0.6856
vt 0.8321 -0.9400
vt 0.9578 -0.6792
vt 0.9565 -0.3129
vt 0.8289 -0.0558
vt 0.6498 -0.0585
vt 0.2266 -0.7969
vt 0.0000 0.0000
vt 0.0000 -0.7969
vt 0.2266 0.0000
vt 0.2266 -0.7969
vt 0.0000 0.0000
vt 0.0000 -0.7969
vt 0.2266 0.0000
vt 0.2266 -0.7969
vt 0.0000 0.0000
vt 0.0000 -0.7969
vt 0.2266 0.0000
vt 0.2266 -0.7969
vt 0.0000 0.0000
vt 0.0000 -0.7969
vt 0.2266 0.0000
vt 0.2266 -0.7969
vt 0.0000 0.0000
vt 0.0000 -0.7969
vt 0.2266 0.0000
vt 0.2266 -0.7969
vt 0.0000 0.0000
vt 0.0000 -0.7969
vt 0.2266 0.0000
vt 0.8321 -0.9400
vt 0.9578 -0.6792
vt 0.9565 -0.3129
vt 0.8289 -0.0558
vt 0.2266 -0.7969
vt 0.0000 0.0000
vt 0.0000 -0.7969
vt 0.2266 0.0000
vt 0.2266 -0.7969
vt 0.0000 0.0000
vt 0.0000 -0.7969
vt 0.2266 0.0000
vt 0.5240 -0.3194
vn 0.0000 -0.0000 1.0000
vn 0.0000 0.0000 -1.0000
vn 0.3894 -0.9211 -0.0000
vn -0.3759 -0.9267 -0.0000
vn 0.3760 0.9266 0.0000
vn 0.9211 0.3894 -0.0000
vn -0.3894 0.9211 0.0000
vn -0.9267 0.3759 0.0000
vn -0.9211 -0.3894 -0.0000
vn 0.9267 -0.3759 -0.0000
usemtl Material.041
s 1
f 1/1/1 2/2/1 3/3/1
f 2/2/1 1/1/1 4/4/1
f 5/5/1 4/4/1 1/1/1
f 6/6/2 7/7/2 8/8/2
f 7/7/2 6/6/2 9/9/2
f 10/10/2 9/9/2 6/6/2
f 6/6/2 11/11/2 10/10/2
f 11/11/2 6/6/2 12/12/2
f 13/13/2 12/12/2 6/6/2
f 9/14/3 3/15/4 7/16/4
f 3/15/4 9/14/3 14/17/3
f 12/18/5 15/19/6 11/20/6
f 15/19/6 12/18/5 16/21/5
f 13/22/7 16/23/5 12/24/5
f 16/23/5 13/22/7 5/25/7
f 17/26/8 5/27/7 13/28/7
f 5/27/7 17/26/8 4/29/8
f 8/30/9 4/31/8 17/32/8
f 4/31/8 8/30/9 2/33/9
f 7/34/4 2/35/9 8/36/9
f 2/35/9 7/34/4 3/37/4
f 14/38/1 1/1/1 3/3/1
f 1/1/1 14/38/1 18/39/1
f 15/40/1 1/1/1 18/39/1
f 1/1/1 15/40/1 16/41/1
f 11/42/6 18/43/10 10/44/10
f 18/43/10 11/42/6 15/45/6
f 10/46/10 14/47/3 9/48/3
f 14/47/3 10/46/10 18/49/10
f 6/6/2 17/50/2 13/13/2
f 17/50/2 6/6/2 8/8/2
f 16/41/1 5/5/1 1/1/1
